REM DIRINDEX 1\2,1\3,1\4,1\5\6,1\5\7,1\8
REM DIRNAME folder01,folder02,folder03,folder04,folder05,folder06,folder07,folder08
TITLE ""
FILE "089 Åy089ÅzUnit5 (1009 extinction_1020 inhibit).mp3" MP3
  TRACK 01 AUDIO
    TITLE "0:"
    INDEX 01 00:00:00
  TRACK 02 AUDIO
    TITLE "2:cjc115_3468"
    INDEX 01 00:00:07
  TRACK 03 AUDIO
    TITLE "0:"
    INDEX 01 00:01:34
  TRACK 04 AUDIO
    TITLE "3:cjc115_3469"
    INDEX 01 00:01:44
  TRACK 05 AUDIO
    TITLE "0:"
    INDEX 01 00:03:57
  TRACK 06 AUDIO
    TITLE "4:cjc115_3470"
    INDEX 01 00:03:64
  TRACK 07 AUDIO
    TITLE "0:"
    INDEX 01 00:07:43
  TRACK 08 AUDIO
    TITLE "2:cjc115_3471"
    INDEX 01 00:08:48
  TRACK 09 AUDIO
    TITLE "0:"
    INDEX 01 00:09:55
  TRACK 10 AUDIO
    TITLE "3:cjc115_3472"
    INDEX 01 00:09:67
  TRACK 11 AUDIO
    TITLE "0:"
    INDEX 01 00:11:74
  TRACK 12 AUDIO
    TITLE "4:cjc115_3473"
    INDEX 01 00:12:07
  TRACK 13 AUDIO
    TITLE "0:"
    INDEX 01 00:15:19
  TRACK 14 AUDIO
    TITLE "2:cjc115_3474"
    INDEX 01 00:16:20
  TRACK 15 AUDIO
    TITLE "0:"
    INDEX 01 00:17:41
  TRACK 16 AUDIO
    TITLE "3:cjc115_3475"
    INDEX 01 00:17:49
  TRACK 17 AUDIO
    TITLE "0:"
    INDEX 01 00:20:02
  TRACK 18 AUDIO
    TITLE "4:cjc115_3476"
    INDEX 01 00:20:04
  TRACK 19 AUDIO
    TITLE "0:"
    INDEX 01 00:23:48
  TRACK 20 AUDIO
    TITLE "2:cjc115_3477"
    INDEX 01 00:24:55
  TRACK 21 AUDIO
    TITLE "0:"
    INDEX 01 00:25:60
  TRACK 22 AUDIO
    TITLE "3:cjc115_3478"
    INDEX 01 00:25:68
  TRACK 23 AUDIO
    TITLE "0:"
    INDEX 01 00:27:12
  TRACK 24 AUDIO
    TITLE "4:cjc115_3479"
    INDEX 01 00:27:22
  TRACK 25 AUDIO
    TITLE "0:"
    INDEX 01 00:30:28
  TRACK 26 AUDIO
    TITLE "2:cjc115_3480"
    INDEX 01 00:31:33
  TRACK 27 AUDIO
    TITLE "0:"
    INDEX 01 00:32:45
  TRACK 28 AUDIO
    TITLE "3:cjc115_3481"
    INDEX 01 00:32:52
  TRACK 29 AUDIO
    TITLE "0:"
    INDEX 01 00:33:66
  TRACK 30 AUDIO
    TITLE "4:cjc115_3482"
    INDEX 01 00:34:02
  TRACK 31 AUDIO
    TITLE "0:"
    INDEX 01 00:37:40
  TRACK 32 AUDIO
    TITLE "2:cjc115_3483"
    INDEX 01 00:38:45
  TRACK 33 AUDIO
    TITLE "0:"
    INDEX 01 00:39:54
  TRACK 34 AUDIO
    TITLE "3:cjc115_3484"
    INDEX 01 00:39:64
  TRACK 35 AUDIO
    TITLE "0:"
    INDEX 01 00:42:55
  TRACK 36 AUDIO
    TITLE "4:cjc115_3485"
    INDEX 01 00:42:65
  TRACK 37 AUDIO
    TITLE "0:"
    INDEX 01 00:47:09
  TRACK 38 AUDIO
    TITLE "2:cjc115_3486"
    INDEX 01 00:48:14
  TRACK 39 AUDIO
    TITLE "0:"
    INDEX 01 00:49:23
  TRACK 40 AUDIO
    TITLE "3:cjc115_3487"
    INDEX 01 00:49:31
  TRACK 41 AUDIO
    TITLE "0:"
    INDEX 01 00:50:46
  TRACK 42 AUDIO
    TITLE "4:cjc115_3488"
    INDEX 01 00:50:52
  TRACK 43 AUDIO
    TITLE "0:"
    INDEX 01 00:54:17
  TRACK 44 AUDIO
    TITLE "2:cjc115_3489"
    INDEX 01 00:55:26
  TRACK 45 AUDIO
    TITLE "0:"
    INDEX 01 00:56:37
  TRACK 46 AUDIO
    TITLE "3:cjc115_3490"
    INDEX 01 00:56:45
  TRACK 47 AUDIO
    TITLE "0:"
    INDEX 01 00:58:13
  TRACK 48 AUDIO
    TITLE "4:cjc115_3491"
    INDEX 01 00:58:17
  TRACK 49 AUDIO
    TITLE "0:"
    INDEX 01 01:01:17
  TRACK 50 AUDIO
    TITLE "2:cjc115_3492"
    INDEX 01 01:02:26
  TRACK 51 AUDIO
    TITLE "0:"
    INDEX 01 01:03:35
  TRACK 52 AUDIO
    TITLE "3:cjc115_3493"
    INDEX 01 01:03:41
  TRACK 53 AUDIO
    TITLE "0:"
    INDEX 01 01:06:22
  TRACK 54 AUDIO
    TITLE "4:cjc115_3494"
    INDEX 01 01:06:28
  TRACK 55 AUDIO
    TITLE "0:"
    INDEX 01 01:09:05
  TRACK 56 AUDIO
    TITLE "2:cjc115_3495"
    INDEX 01 01:10:12
  TRACK 57 AUDIO
    TITLE "0:"
    INDEX 01 01:11:29
  TRACK 58 AUDIO
    TITLE "3:cjc115_3496"
    INDEX 01 01:11:35
  TRACK 59 AUDIO
    TITLE "0:"
    INDEX 01 01:14:57
  TRACK 60 AUDIO
    TITLE "4:cjc115_3497"
    INDEX 01 01:14:59
  TRACK 61 AUDIO
    TITLE "0:"
    INDEX 01 01:18:37
  TRACK 62 AUDIO
    TITLE "2:cjc115_3498"
    INDEX 01 01:19:46
  TRACK 63 AUDIO
    TITLE "0:"
    INDEX 01 01:20:57
  TRACK 64 AUDIO
    TITLE "3:cjc115_3499"
    INDEX 01 01:20:67
  TRACK 65 AUDIO
    TITLE "0:"
    INDEX 01 01:23:34
  TRACK 66 AUDIO
    TITLE "4:cjc115_3500"
    INDEX 01 01:23:42
  TRACK 67 AUDIO
    TITLE "0:"
    INDEX 01 01:26:56
  TRACK 68 AUDIO
    TITLE "2:cjc115_3501"
    INDEX 01 01:27:65
  TRACK 69 AUDIO
    TITLE "0:"
    INDEX 01 01:29:01
  TRACK 70 AUDIO
    TITLE "3:cjc115_3502"
    INDEX 01 01:29:09
  TRACK 71 AUDIO
    TITLE "0:"
    INDEX 01 01:31:51
  TRACK 72 AUDIO
    TITLE "4:cjc115_3503"
    INDEX 01 01:31:57
  TRACK 73 AUDIO
    TITLE "0:"
    INDEX 01 01:35:22
